<svg xmlns="http://www.w3.org/2000/svg" xmlns:xlink="http://www.w3.org/1999/xlink" width="64" height="64.5" viewBox="0 0 64 64.5"><defs><style>.a{fill:#050608;}.b{fill:#ad8755;fill-rule:evenodd;}.c{filter:url(#a);}</style><filter id="a" x="0" y="0" width="64" height="64.5" filterUnits="userSpaceOnUse"><feOffset dy="0.5" input="SourceAlpha"/><feGaussianBlur result="b"/><feFlood flood-color="#fff" flood-opacity="0.2"/><feComposite operator="in" in2="b"/><feComposite in="SourceGraphic"/></filter></defs><g class="c" transform="matrix(1, 0, 0, 1, 0, 0)"><rect class="a" width="64" height="64"/></g><path class="b" d="M52.579,80.532a1.093,1.093,0,0,1-.6,1.05,8.227,8.227,0,0,1-3.426.634,10.938,10.938,0,0,1-7.88-3.222,12.25,12.25,0,0,1-3.189-8.327c0-3.524,1.232-6.252,2.977-7.637A9.6,9.6,0,0,1,46.9,61.044c3.876,0,6.314,1.29,7.068,2.435a4.607,4.607,0,0,1,.631,1.985c.031.268.061.45.212.45.21,0,.266-.148.266-.629a37.686,37.686,0,0,1,.212-4.272c0-.123-.056-.24-.363-.268a15.323,15.323,0,0,1-2.438-.3,25.547,25.547,0,0,0-4.6-.516,14.771,14.771,0,0,0-8,1.9,11.394,11.394,0,0,0-5.023,9.9,11.757,11.757,0,0,0,3.577,8.57c3.342,2.915,7.612,3.214,9.894,3.214a14.824,14.824,0,0,0,6.375-1.354c.36-.21.391-.266.391-1.62v-3.37c0-1.262,0-2.164.059-3.125.061-1.055.3-1.566,1.114-1.72a4.906,4.906,0,0,1,.751-.089c.123,0,.24-.056.24-.181,0-.174-.148-.235-.48-.235-.9,0-2.8.087-2.946.087s-2.044-.087-3.4-.087c-.33,0-.48.059-.48.235,0,.125.123.181.243.181a5.956,5.956,0,0,1,1.02.089c1.206.332,1.352.664,1.352,3.1v5.11h.005Z" transform="translate(-19.822 -41.902)"/><path class="b" d="M83.329,71.517a.773.773,0,0,0,.287-1.071H80c.777-2.457,1.354-4.795,2.719-6.737a2.933,2.933,0,0,1,2.25-1.557c.759,0,1.68.521,1.771,2.257.028.206.144.465.4.465.465,0,1.242-.9,1.242-1.8a2.167,2.167,0,0,0-2.373-1.911,6.247,6.247,0,0,0-4.861,2.4,17.6,17.6,0,0,0-3.213,6.877H75.465a.717.717,0,0,0-.213,1.071h2.4c-1.386,4.721-2.345,9.691-3.822,14.524-.6,1.963-1.291,2.4-1.82,2.4a2.177,2.177,0,0,1-1.729-1.078c-.238-.371-.437-.6-.847-.252a1.15,1.15,0,0,0-.539,1.043,1.728,1.728,0,0,0,1.872,1.473,4.891,4.891,0,0,0,3.29-1.473c.612-.553,1.487-2.145,2.292-4.746.955-3.178,1.792-6.39,2.719-9.6.252-.861.493-1.8.661-2.285h3.6v-.007Z" transform="translate(-38.193 -39.06)"/></svg>