<svg xmlns="http://www.w3.org/2000/svg" xmlns:xlink="http://www.w3.org/1999/xlink" width="168.584" height="130.122" viewBox="0 0 168.584 130.122"><defs><style>.a{fill:#fff;}.b{filter:url(#a);}</style><filter id="a" x="0" y="0" width="168.584" height="130.122" filterUnits="userSpaceOnUse"><feOffset dy="2" input="SourceAlpha"/><feGaussianBlur stdDeviation="0.5" result="b"/><feFlood flood-opacity="0.161"/><feComposite operator="in" in2="b"/><feComposite in="SourceGraphic"/></filter></defs><g transform="translate(1.5)"><g transform="translate(0 0)"><g class="b" transform="matrix(1, 0, 0, 1, -1.5, 0)"><path class="a" d="M32.688,125.3a1.037,1.037,0,0,1,.484-.939c.368-.315.547-.106.76.226a1.953,1.953,0,0,0,1.553.971c.475,0,1.094-.393,1.634-2.161,1.327-4.349,2.188-8.821,3.432-13.069H38.394a.647.647,0,0,1,.191-.964h2.222a15.834,15.834,0,0,1,2.885-6.188,5.607,5.607,0,0,1,4.364-2.163,1.947,1.947,0,0,1,2.131,1.719c0,.81-.7,1.615-1.116,1.615-.233,0-.336-.232-.361-.418-.083-1.562-.908-2.031-1.59-2.031a2.631,2.631,0,0,0-2.021,1.4,21.568,21.568,0,0,0-2.441,6.062h3.246a.7.7,0,0,1-.258.964v.006H42.417c-.152.442-.368,1.283-.594,2.057-.833,2.891-1.584,5.782-2.441,8.641a10.907,10.907,0,0,1-2.058,4.27,4.4,4.4,0,0,1-2.955,1.325A1.552,1.552,0,0,1,32.688,125.3Zm127.8-5.964c0-.229.079-.418.625-1.716.547-1.276,1.5-3.83,2.1-5.13a5.937,5.937,0,0,0,.547-1.9c0-.309-.025-.62-.411-.62-.623,0-2.163,1.3-3.589,3.093a42.993,42.993,0,0,0-3.976,6.606c-.128.236-.226.322-.464.322-.289,0-.988-.088-.755-.681.13-.344,2.885-7.832,3.014-8.2.125-.34.125-.592-.073-.592a4.549,4.549,0,0,0-2.37,1.3.328.328,0,0,1-.314-.388A5.544,5.544,0,0,1,158.7,109c.613,0,.9.463.667,1.067l-1.761,4.56.079.05c1.845-2.812,4.418-5.672,6.358-5.672a1.28,1.28,0,0,1,1.46,1.4,7.187,7.187,0,0,1-.417,1.821c-.468,1.3-2.341,5.549-2.419,5.75-.1.261-.123.5.062.5a5.441,5.441,0,0,0,2.436-1.773c.358-.054.417.155.417.359a6.069,6.069,0,0,1-4.468,2.923A.776.776,0,0,1,160.491,119.333Zm-77.524,0c0-.229.079-.418.625-1.716.543-1.276,1.5-3.83,2.105-5.13a6.232,6.232,0,0,0,.547-1.9c0-.309-.032-.62-.424-.62-.616,0-2.162,1.3-3.572,3.093a42.724,42.724,0,0,0-3.986,6.606c-.123.236-.233.322-.464.322-.289,0-.988-.088-.748-.681.128-.344,2.878-7.832,3.013-8.2.129-.34.129-.592-.079-.592a4.5,4.5,0,0,0-2.363,1.3.322.322,0,0,1-.314-.388A5.5,5.5,0,0,1,81.173,109c.624,0,.913.463.675,1.067l-1.757,4.56.079.05c1.838-2.812,4.406-5.672,6.357-5.672a1.277,1.277,0,0,1,1.455,1.4,6.9,6.9,0,0,1-.417,1.821c-.474,1.3-2.335,5.549-2.419,5.75-.1.261-.13.5.062.5a5.346,5.346,0,0,0,2.429-1.773c.368-.054.428.155.428.359a6.1,6.1,0,0,1-4.472,2.923A.784.784,0,0,1,82.967,119.333Zm58.512-2.81a9.735,9.735,0,0,1,2.831-5.829A5.043,5.043,0,0,1,147.9,109c1.835,0,2.75,1.382,2.646,3.275a9.919,9.919,0,0,1-2.757,5.912,4.982,4.982,0,0,1-3.707,1.8C142.412,119.987,141.325,118.756,141.479,116.523Zm4.34-5.492a15,15,0,0,0-2.6,6.51c-.051.907.314,1.662,1.055,1.662.581,0,1.232-.239,2.062-1.357a16.244,16.244,0,0,0,2.412-6.348c.026-.8-.125-1.718-1.04-1.718C147.192,109.78,146.572,110.016,145.819,111.031Zm-14.295,8.72a.642.642,0,0,1-.11-.708l3.312-7.879c.123-.293.123-.5-.056-.5a5.925,5.925,0,0,0-2.156,1.379.367.367,0,0,1-.336-.445,7.532,7.532,0,0,1,4.28-2.6c.182,0,.311.152.42.258.161.155.161.391-.153,1.143l-3.1,7.392c-.1.261-.13.573.081.573a6.275,6.275,0,0,0,2.7-1.92.4.4,0,0,1,.38.434c-.38.759-3.058,3.105-4.856,3.105A.585.585,0,0,1,131.524,119.751Zm-83.036-3.228a9.761,9.761,0,0,1,2.828-5.829A5.06,5.06,0,0,1,54.9,109c1.849,0,2.757,1.382,2.649,3.275A9.85,9.85,0,0,1,54.8,118.19a4.979,4.979,0,0,1-3.711,1.8C49.425,119.987,48.334,118.756,48.488,116.523Zm4.34-5.492a14.874,14.874,0,0,0-2.59,6.51c-.059.907.3,1.662,1.062,1.662.563,0,1.214-.239,2.043-1.357a15.946,15.946,0,0,0,2.419-6.348c.026-.8-.128-1.718-1.03-1.718C54.2,109.78,53.576,110.016,52.828,111.031Zm59.5,8.245a3.655,3.655,0,0,1,.258-1.018l.858-2.331-.079-.03c-1.842,2.289-4.5,4.087-5.713,4.087-.729,0-1.148-.733-1.148-1.468a14.025,14.025,0,0,1,5.723-8.4,4.556,4.556,0,0,1,2.338-.759,1.286,1.286,0,0,1,.619.164,1.549,1.549,0,0,1,.522.551l.729-1.664a1.082,1.082,0,0,1,1.266.381c-.393.968-2.649,6.718-3.484,9.086-.152.44-.022.6.185.6.444,0,1.2-.445,2.678-1.748a.356.356,0,0,1,.368.334c-1.1,1.454-2.941,2.921-4.371,2.921A.725.725,0,0,1,112.324,119.276Zm-.415-7.907a11.571,11.571,0,0,0-3.247,6.739c0,.312.154.492.387.492.265,0,1.043-.337,2.524-1.689a12.63,12.63,0,0,0,3.479-5.618,1.378,1.378,0,0,0-1.3-.939C113.131,110.354,112.719,110.637,111.909,111.369Zm-13.421,7.777a4.766,4.766,0,0,1,.339-1.483l.9-2.579-.1-.022c-1.781,2.4-3.743,4.922-6.26,4.922-1.011,0-1.548-.838-1.548-1.88a10.851,10.851,0,0,1,3.447-6.79C97.036,109.728,98.675,109,99.92,109a1.578,1.578,0,0,1,1.323.809l1.869-5.367c.522-1.454.6-1.923.233-2.159l-.6-.422a.316.316,0,0,1,.079-.359,10.648,10.648,0,0,1,3.064-.494l.1.155c-.463,1.461-.856,2.449-1.635,4.6-2.569,7.11-3.786,11.27-4.024,12.052-.1.34-.073.6.16.6a8.327,8.327,0,0,0,2.853-2.339.336.336,0,0,1,.39.337c-.707,1.426-3.058,3.568-4.415,3.568A.807.807,0,0,1,98.488,119.146Zm-.594-8.248a22.175,22.175,0,0,0-3.711,5.077,5.218,5.218,0,0,0-.809,2.47.551.551,0,0,0,.5.551c.393,0,1.712-.476,3.51-2.318a11.4,11.4,0,0,0,3.16-5.027c.314-1.092-.025-1.869-.675-1.869A3.462,3.462,0,0,0,97.894,110.9Zm-30.325,8.169,1.769-4.758-.047-.026c-1.876,2.365-5.1,5.7-6.5,5.7-1.062,0-1.192-1.074-.748-2.21l2.389-6.33c.179-.492.207-.75,0-.75-.5,0-1.849,1.136-2.467,1.789a.366.366,0,0,1-.444-.395c.67-1.035,3.272-3.086,4.488-3.086.342,0,.94.331.785.777l-2.9,7.6c-.245.62-.11.878.179.878.387,0,1.423-.831,2.775-2.157a26.9,26.9,0,0,0,4.572-6.95c.54-.1,1.172.157,1.27.472-.258.7-1.945,4.976-3.032,8.064-.136.341-.161.652.1.652.493,0,1.86-1.222,2.536-2.034a.367.367,0,0,1,.471.366c-.679,1.252-3.159,3.309-4.548,3.309A.732.732,0,0,1,67.569,119.068Zm53.946.206a5.041,5.041,0,0,1,.368-1.484l2.429-7.183H122.3a.642.642,0,0,1,.28-.726l2.076-.363,1.459-2.572a.862.862,0,0,1,.984.15l-.755,2.557h2.835a.761.761,0,0,1-.318.961v0H126.04l-2.343,6.849c-.145.487-.022.645.191.645a9.566,9.566,0,0,0,2.956-2.336c.258,0,.419.157.355.469-1.449,2.148-3.891,3.744-4.977,3.744A.781.781,0,0,1,121.515,119.273ZM135.729,104.4c0-.57.393-1.64,1.4-1.64a.882.882,0,0,1,.908.989,1.551,1.551,0,0,1-1.379,1.637A.91.91,0,0,1,135.729,104.4ZM62.583,90.06a13.65,13.65,0,0,1-4.14-9.939c0-5.586,2.715-9.525,5.814-11.477a17.071,17.071,0,0,1,9.255-2.2,29.449,29.449,0,0,1,5.322.6,17.839,17.839,0,0,0,2.821.347c.355.033.42.168.42.311a43.864,43.864,0,0,0-.245,4.955c0,.558-.066.729-.309.729-.174,0-.209-.21-.245-.522a5.33,5.33,0,0,0-.73-2.3c-.872-1.328-3.694-2.825-8.179-2.825a11.091,11.091,0,0,0-7.45,2.3c-2.02,1.606-3.446,4.771-3.446,8.857a14.216,14.216,0,0,0,3.691,9.658,12.641,12.641,0,0,0,9.119,3.737,9.518,9.518,0,0,0,3.965-.734,1.269,1.269,0,0,0,.7-1.219h-.007V84.412c0-2.83-.168-3.215-1.564-3.6a6.915,6.915,0,0,0-1.179-.1c-.139,0-.281-.065-.281-.211,0-.2.174-.272.555-.272,1.571,0,3.765.1,3.936.1s2.363-.1,3.41-.1c.384,0,.555.07.555.272,0,.146-.135.211-.278.211a5.708,5.708,0,0,0-.869.1c-.942.178-1.218.77-1.288,1.994-.069,1.114-.069,2.161-.069,3.624v3.909c0,1.571-.034,1.636-.452,1.879a17.116,17.116,0,0,1-7.377,1.571C71.392,93.788,66.45,93.442,62.583,90.06ZM145.517,92.9c-.415-.207-.444-.329-.444-1.132,0-1.5.116-2.694.145-3.17.036-.327.092-.483.237-.483.183,0,.212.091.212.331a5.712,5.712,0,0,0,.083,1.106c.453,2.216,2.422,3.043,4.421,3.043a3.987,3.987,0,0,0,4.267-3.971c0-2.065-.865-3.26-3.436-5.376l-1.339-1.114c-3.167-2.6-3.877-4.447-3.877-6.481,0-3.2,2.386-5.378,6.168-5.378a11.47,11.47,0,0,1,2.777.3,4.836,4.836,0,0,0,1.047.152c.236,0,.295.057.295.2s-.114,1.138-.114,3.177c0,.474-.056.681-.214.681s-.2-.15-.237-.391a5.147,5.147,0,0,0-.4-1.494c-.172-.326-.973-1.582-3.722-1.582a3.392,3.392,0,0,0-3.662,3.467c0,1.7.825,2.721,3.637,5.024l.825.654c3.525,2.782,4.362,4.635,4.362,7.023a6.2,6.2,0,0,1-2.534,4.961,7.82,7.82,0,0,1-4.5,1.262A9.121,9.121,0,0,1,145.517,92.9Zm-14.844.3c-.059,0-.568.026-1.192.026-.6.033-1.28.062-1.733.062-.325,0-.473-.059-.473-.237,0-.091.059-.184.24-.184a4.433,4.433,0,0,0,.893-.121c.594-.115.743-.779.864-1.642.15-1.256.15-3.617.15-6.483h-.008V79.362c0-4.661,0-5.5-.059-6.45-.069-1.02-.3-1.5-1.281-1.706a5.93,5.93,0,0,0-1.019-.093c-.121,0-.24-.062-.24-.178,0-.178.154-.236.477-.236,1.342,0,3.22.086,3.374.086.212,0,6.15,0,6.83-.03a7.662,7.662,0,0,0,1.29-.15c.147-.03.263-.145.419-.145.08,0,.116.115.116.266,0,.21-.15.572-.242,1.407-.029.3-.085,1.613-.145,1.977-.03.145-.092.323-.207.323-.18,0-.242-.145-.242-.388a3.213,3.213,0,0,0-.178-1.073c-.211-.483-.508-.839-2.123-1.016-.506-.064-3.753-.092-4.083-.092-.125,0-.18.1-.18.3v8.247c0,.207.029.3.18.3.384,0,4.053,0,4.742-.062.719-.062,1.132-.116,1.4-.418.207-.236.328-.388.449-.388.088,0,.145.059.145.237s-.145.682-.24,1.668c-.055.6-.118,1.7-.118,1.915,0,.24,0,.572-.209.572-.145,0-.2-.124-.2-.276a3.076,3.076,0,0,0-.118-.983c-.118-.421-.384-.931-1.555-1.047-.8-.1-3.749-.157-4.264-.157a.189.189,0,0,0-.2.211v2.637c0,1.016-.026,4.48,0,5.113.091,2.059.539,2.446,3.459,2.446a8.69,8.69,0,0,0,2.866-.323c.774-.334,1.132-.933,1.339-2.157.056-.329.121-.45.273-.45.174,0,.174.243.174.45a27.842,27.842,0,0,1-.39,2.9c-.2.779-.434.779-1.6.779C133.535,93.373,131.539,93.2,130.673,93.2Zm-16.216.006c-.145,0-2.02.086-2.918.086-.325,0-.477-.058-.477-.236,0-.093.056-.184.24-.184a4.394,4.394,0,0,0,.893-.121c.6-.116.748-.777.867-1.642.152-1.256.152-3.619.152-6.485V71.975l-4.418.062c-1.85.026-2.561.233-3.036.954a4.61,4.61,0,0,0-.508.925c-.09.243-.183.3-.3.3-.09,0-.149-.09-.149-.271,0-.3.6-2.874.654-3.111.067-.175.186-.563.3-.563a5.669,5.669,0,0,0,1.307.355c.865.09,2,.149,2.356.149H120.6a15.311,15.311,0,0,0,2.12-.149,7.105,7.105,0,0,1,.836-.148c.147,0,.147.178.147.356,0,.9-.088,2.96-.088,3.289,0,.264-.085.388-.2.388-.152,0-.214-.088-.242-.507l-.026-.331c-.118-.892-.807-1.582-3.67-1.639l-3.758-.062h-.006V84.622c0,2.866,0,5.228.147,6.485.088.864.269,1.526,1.165,1.642a12.288,12.288,0,0,0,1.336.121c.183,0,.245.094.245.184,0,.15-.152.236-.485.236C116.491,93.29,114.61,93.2,114.456,93.2Zm-25.517,0c-.329,0-1.97.086-3.368.086-.391,0-.568-.059-.568-.237,0-.119.114-.184.266-.184a7.326,7.326,0,0,0,.864-.059C87.508,92.63,88.1,91.494,88.646,90l6.763-18.568c.354-.982.473-1.162.656-1.162s.3.145.654,1.073c.455,1.135,5.136,13.481,6.954,18.023,1.073,2.662,1.937,3.135,2.564,3.319a3.664,3.664,0,0,0,1.192.178c.183,0,.3.033.3.184,0,.175-.273.237-.6.237-.449,0-2.629,0-4.684-.062-.568-.023-.9-.023-.9-.2,0-.121.088-.175.207-.211.186-.062.364-.329.186-.8l-2.773-7.352a.267.267,0,0,0-.271-.188H92.487a.324.324,0,0,0-.3.246L90.4,90a6.236,6.236,0,0,0-.423,2c0,.59.63.862,1.138.862h.3c.212,0,.3.069.3.184,0,.175-.18.237-.446.237C90.547,93.287,89.267,93.2,88.939,93.2Zm6.416-18.089-2.623,8.07c-.065.148,0,.21.083.21h5.7c.145,0,.145-.088.114-.21L95.8,75.112c-.076-.225-.15-.337-.225-.337S95.428,74.887,95.355,75.112Zm20.767-16.845c-.143,0-2.02.09-2.917.09-.328,0-.478-.059-.478-.24,0-.09.055-.181.241-.181a4.585,4.585,0,0,0,.891-.116c.6-.124.748-.779.865-1.647.157-1.256.157-3.619.157-6.485h0V44.429c0-4.668,0-5.5-.062-6.46-.065-1.02-.3-1.491-1.284-1.7a5.424,5.424,0,0,0-1.011-.093c-.121,0-.236-.059-.236-.178,0-.181.145-.24.464-.24,1.347,0,3.225.09,3.371.09.369,0,2.247-.09,4.035-.09,2.943,0,8.4-.266,11.955,3.409a10.7,10.7,0,0,1,2.894,7.592,12.262,12.262,0,0,1-3.222,8.43c-1.281,1.342-3.969,3.438-9.04,3.438C120.18,58.626,116.429,58.267,116.122,58.267Zm1.655-21.288a.54.54,0,0,0-.364.6c-.029,1.013-.029,4.06-.029,6.363V47.65c0,3.17.029,5.92.062,6.486a6.172,6.172,0,0,0,.331,2.273c.382.569,1.55,1.2,5.071,1.2a10.005,10.005,0,0,0,7.1-2.779c1.546-1.523,2.381-4.395,2.381-7.142a10.74,10.74,0,0,0-2.86-7.536c-2.806-2.96-6.209-3.378-9.755-3.378A7.886,7.886,0,0,0,117.776,36.979ZM103.894,56.646c-.325-.3-4.621-4.694-7.785-8.1-3.465-3.736-6.828-7.505-7.785-8.578l.384,14.316c.059,2.446.361,3.227,1.161,3.467a6.568,6.568,0,0,0,1.5.181c.152,0,.231.062.231.181,0,.177-.169.24-.533.24-1.693,0-2.885-.09-3.158-.09s-1.52.09-2.866.09c-.292,0-.473-.033-.473-.24,0-.119.085-.181.24-.181a4.208,4.208,0,0,0,1.215-.181c.745-.2.9-1.076.9-3.8l.036-17.124c0-1.165.085-1.5.325-1.5s.743.657,1.044.96c.444.507,4.891,5.32,9.482,10.253,2.951,3.169,6.2,6.813,7.162,7.8l-.329-15.184c-.034-1.944-.242-2.605-1.167-2.843a7.732,7.732,0,0,0-1.462-.15c-.2,0-.236-.093-.236-.2,0-.178.236-.211.606-.211,1.327,0,2.764.09,3.1.09.322,0,1.31-.09,2.528-.09.325,0,.539.03.539.211,0,.112-.116.2-.325.2a2.66,2.66,0,0,0-.725.091c-.982.208-1.1.866-1.1,2.659l-.059,17.513c0,1.976-.066,2.128-.273,2.128C105.833,58.561,105.482,58.233,103.894,56.646ZM41.112,58.264c-.062,0-.568.028-1.194.028-.6.029-1.284.062-1.73.062-.331,0-.482-.059-.482-.24,0-.09.063-.181.242-.181a4.7,4.7,0,0,0,.9-.116c.594-.124.743-.779.86-1.647.152-1.254.152-3.615.152-6.483h-.01v-5.26c0-4.668,0-5.5-.062-6.46-.059-1.02-.295-1.494-1.283-1.7a5.3,5.3,0,0,0-1.011-.092c-.121,0-.242-.059-.242-.178,0-.181.153-.24.478-.24,1.343,0,3.221.09,3.378.09.2,0,6.144,0,6.828-.033a8.53,8.53,0,0,0,1.285-.142c.147-.039.266-.153.417-.153.088,0,.121.115.121.266,0,.213-.152.572-.24,1.4-.033.3-.1,1.618-.152,1.977-.029.145-.088.323-.207.323-.18,0-.242-.145-.242-.388a3.129,3.129,0,0,0-.178-1.073c-.209-.48-.508-.839-2.119-1.018-.51-.062-3.756-.088-4.088-.088-.121,0-.18.093-.18.3v8.252c0,.211.033.3.18.3.384,0,4.054,0,4.743-.062.719-.065,1.135-.121,1.4-.421.214-.243.335-.391.449-.391.092,0,.152.062.152.243s-.152.685-.237,1.672c-.062.6-.124,1.7-.124,1.911,0,.243,0,.572-.209.572-.145,0-.2-.124-.2-.272a3.046,3.046,0,0,0-.118-.984c-.118-.42-.384-.931-1.55-1.049-.807-.088-3.756-.15-4.264-.15a.188.188,0,0,0-.209.21v2.632c0,1.013-.028,4.484,0,5.112.091,2.06.535,2.448,3.462,2.448a8.493,8.493,0,0,0,2.86-.33c.777-.329,1.135-.926,1.347-2.151.056-.323.118-.45.263-.45.183,0,.183.24.183.45a28.437,28.437,0,0,1-.39,2.9c-.2.78-.444.78-1.609.78C43.975,58.442,41.976,58.264,41.112,58.264Zm17.644-.006c-.114,0-.627.029-1.221.029-.6.03-1.254.062-1.7.062-.329,0-.479-.059-.479-.24,0-.088.062-.179.24-.179a4.817,4.817,0,0,0,.9-.113c.6-.127.754-.783.872-1.651.149-1.252.149-3.615.149-6.483v-5.26c0-4.667,0-5.5-.066-6.46-.052-1.019-.292-1.492-1.28-1.7a5.361,5.361,0,0,0-1.011-.091c-.121,0-.242-.059-.242-.178,0-.181.15-.24.475-.24,1.34,0,3.224.09,3.374.09s2.319-.09,3.221-.09c.328,0,.485.057.485.24,0,.119-.127.178-.248.178a6.8,6.8,0,0,0-.988.091c-.861.152-1.1.656-1.16,1.7-.062.961-.062,1.8-.062,6.46H60v5.325c0,4.392.121,6.3.66,6.847.473.474,1.25.683,3.581.683,1.582,0,2.889-.032,3.611-.9a4.06,4.06,0,0,0,.774-1.791c.029-.239.085-.391.271-.391.152,0,.175.113.175.447a19.11,19.11,0,0,1-.444,2.99c-.216.685-.3.806-1.883.806C62.462,58.44,60.486,58.259,58.756,58.259Zm-55.094.006c-.313,0-1.981.1-2.921.1-.349,0-.588-.065-.588-.313,0-.108.168-.173.343-.173a4.365,4.365,0,0,0,1.043-.106c1.153-.214,1.258-1.571,1.4-2.9l2.5-22.74c.074-.385.178-.628.384-.628s.347.135.524.525L17,53.973,27.229,32.068c.139-.313.278-.556.524-.556s.351.275.423.939l2.317,21.416c.139,1.256.382,3.209,1.885,3.695a7.417,7.417,0,0,0,2.259.318c.174,0,.277.033.277.171,0,.211-.307.315-.73.315-.769,0-4.521-.1-5.814-.207-.795-.069-.973-.175-.973-.347,0-.144.072-.211.242-.25s.211-.628.139-1.256L26.112,38.313h-.1L17.484,56.445c-.732,1.538-.84,1.856-1.154,1.856-.242,0-.413-.353-1.073-1.607-.908-1.709-3.9-7.743-4.074-8.092-.314-.625-4.209-9-4.6-9.939H6.447L5.055,54.844c-.034.561-.034,1.189-.034,1.781a1.112,1.112,0,0,0,.9,1.078,6.482,6.482,0,0,0,1.323.178c.142,0,.278.068.278.173,0,.249-.208.313-.621.313C5.611,58.368,3.943,58.264,3.662,58.264Zm135.187,0c-.332,0-1.965.09-3.368.09-.391,0-.57-.059-.57-.24,0-.119.112-.181.271-.181.2,0,.624-.033.861-.059,1.375-.181,1.969-1.316,2.507-2.81L145.312,36.5c.358-.983.479-1.167.66-1.167s.3.148.653,1.076c.453,1.135,5.137,13.481,6.949,18.026,1.08,2.658,1.94,3.135,2.564,3.316a3.95,3.95,0,0,0,1.2.181c.18,0,.3.029.3.181,0,.177-.273.24-.6.24-.449,0-2.623,0-4.684-.064-.562-.026-.9-.026-.9-.207,0-.121.091-.181.212-.207.175-.057.361-.326.175-.809l-2.773-7.349a.264.264,0,0,0-.267-.181H142.4a.311.311,0,0,0-.307.237l-1.79,5.292a6.364,6.364,0,0,0-.416,2c0,.6.624.868,1.138.868h.3c.215,0,.3.062.3.181,0,.178-.178.24-.444.24C140.46,58.354,139.17,58.264,138.849,58.264Zm6.419-18.088-2.629,8.073c-.065.148,0,.207.085.207h5.7c.145,0,.145-.09.114-.207l-2.83-8.073c-.077-.222-.153-.333-.227-.333S145.338,39.954,145.268,40.177ZM76.232,58.262c-.156,0-2.038.088-2.933.088-.322,0-.479-.059-.479-.24,0-.088.069-.179.242-.179a4.846,4.846,0,0,0,.9-.113c.6-.127.751-.783.867-1.651.147-1.252.147-3.615.147-6.483v-5.26c0-4.667,0-5.5-.062-6.46-.054-1.016-.351-1.52-1.011-1.668a3.742,3.742,0,0,0-.926-.124c-.127,0-.245-.059-.245-.178,0-.181.16-.24.482-.24.981,0,2.861.09,3.018.09.142,0,2.014-.09,2.917-.09.328,0,.473.057.473.24,0,.119-.116.178-.24.178a4.356,4.356,0,0,0-.748.091c-.8.152-1.037.656-1.1,1.7-.062.961-.062,1.8-.062,6.46v5.26c0,2.866,0,5.227.156,6.483.09.868.26,1.524,1.168,1.651.415.054,1.068.113,1.339.113.178,0,.234.094.234.179,0,.152-.147.24-.477.24C78.248,58.35,76.376,58.262,76.232,58.262Zm-71.746-32c-.171,0-2.363.1-3.41.1-.38,0-.555-.072-.555-.276,0-.106.074-.21.278-.21a5.305,5.305,0,0,0,1.046-.142c.7-.134.873-.9,1.015-1.915.171-1.466.171-4.222.171-7.571H3.025V10.113c0-5.444,0-6.416-.069-7.533C2.886,1.4,2.611.838,1.46.6A6.435,6.435,0,0,0,.278.489C.139.489,0,.421,0,.275,0,.07.168,0,.557,0,2.12,0,4.311.1,4.486.1,5.323.1,6.678,0,8.277,0c5.706,0,6.96,3.487,6.96,5.23,0,2.859-1.633,4.57-3.266,6.282,2.575.8,6.02,3.275,6.02,7.356,0,3.73-2.925,7.6-8.875,7.6C8.316,26.471,4.767,26.261,4.486,26.261ZM5.814,12.589h0v1.988c0,2.684,0,7.008.036,7.53.106,1.712.106,2.2,1.182,2.723a8.11,8.11,0,0,0,3.064.525A4.65,4.65,0,0,0,15.007,20.4a8.375,8.375,0,0,0-3.379-6.975,5.741,5.741,0,0,0-2.893-1.013c-.452-.069-2.19-.069-2.711-.069C5.884,12.342,5.814,12.411,5.814,12.589Zm.42-11.443c-.314.075-.42.181-.42.385v9.347c0,.246.07.315.242.385a11.93,11.93,0,0,0,2.123.139c1.948,0,2.44-.072,3.17-.91A5.394,5.394,0,0,0,12.6,6.972c0-2.892-1.287-6-4.7-6A7.811,7.811,0,0,0,6.234,1.146ZM56.585,26.258c-.121,0-.624.029-1.225.029-.591.033-1.251.059-1.7.059-.328,0-.475-.057-.475-.237,0-.088.055-.181.236-.181a4.887,4.887,0,0,0,.9-.112c.594-.124.743-.786.864-1.654.147-1.251.147-3.615.147-6.483v-5.26c0-4.661,0-5.5-.059-6.454-.062-1.016-.3-1.5-1.284-1.7a5.663,5.663,0,0,0-1.017-.088c-.118,0-.24-.062-.24-.184,0-.175.152-.237.479-.237,1.339,0,3.22.088,3.371.088s2.327-.088,3.222-.088c.325,0,.477.059.477.237,0,.121-.121.184-.237.184a6.66,6.66,0,0,0-.988.088c-.867.148-1.1.656-1.161,1.7-.062.961-.062,1.8-.062,6.454h0v5.322c0,4.4.121,6.31.659,6.845.474.48,1.251.688,3.578.688,1.583,0,2.9-.029,3.608-.895a4.159,4.159,0,0,0,.78-1.793c.03-.24.087-.391.267-.391.15,0,.18.119.18.45a19.816,19.816,0,0,1-.444,2.988c-.211.688-.3.8-1.885.8C60.284,26.438,58.314,26.258,56.585,26.258Zm-16.748,0c-.118,0-.624.029-1.225.029-.594.033-1.251.059-1.7.059-.325,0-.477-.057-.477-.237,0-.088.059-.181.24-.181a4.829,4.829,0,0,0,.894-.112c.6-.124.748-.786.865-1.654.154-1.251.154-3.615.154-6.483v-5.26c0-4.661,0-5.5-.062-6.454-.059-1.016-.3-1.5-1.284-1.7a5.566,5.566,0,0,0-1.014-.088c-.118,0-.236-.062-.236-.184,0-.175.15-.237.475-.237,1.339,0,3.22.088,3.371.088s2.324-.088,3.22-.088c.329,0,.479.059.479.237,0,.121-.121.184-.237.184a6.63,6.63,0,0,0-.988.088c-.862.148-1.1.656-1.161,1.7-.062.961-.062,1.8-.062,6.454h-.006v5.322c0,4.4.121,6.31.656,6.845.477.48,1.254.688,3.578.688,1.582,0,2.9-.029,3.611-.895a4.187,4.187,0,0,0,.777-1.793c.03-.24.092-.391.266-.391.152,0,.185.119.185.45a19.059,19.059,0,0,1-.448,2.988c-.212.688-.3.8-1.881.8C43.536,26.438,41.565,26.258,39.836,26.258Zm-12.938,0c-.145,0-2.022.086-2.918.086-.328,0-.479-.057-.479-.237,0-.088.059-.181.24-.181a4.843,4.843,0,0,0,.9-.112c.6-.124.745-.786.864-1.654.152-1.251.152-3.615.152-6.483v-5.26c0-4.661,0-5.5-.062-6.454-.059-1.013-.355-1.523-1.018-1.673a3.852,3.852,0,0,0-.922-.119c-.118,0-.237-.062-.237-.184,0-.175.147-.237.475-.237.985,0,2.863.088,3.01.088s2.029-.088,2.922-.088c.331,0,.485.059.485.237,0,.121-.124.184-.242.184a4.182,4.182,0,0,0-.748.088c-.8.148-1.044.656-1.1,1.7-.063.961-.063,1.8-.063,6.454v5.26c0,2.865,0,5.23.152,6.483.1.868.266,1.53,1.161,1.654.417.052,1.077.112,1.343.112.178,0,.24.1.24.181,0,.152-.149.237-.479.237C28.931,26.347,27.053,26.261,26.9,26.261Zm45.393-6.343a7.789,7.789,0,0,1,2.416-5.429,5.559,5.559,0,0,1,3.756-1.967,1.641,1.641,0,0,1,1.587.984A28.221,28.221,0,0,0,83.6,9.894a4.452,4.452,0,0,0,.908-2.115.988.988,0,0,0-.307-.759c-.2-.2-.276-.282-.276-.556a1,1,0,0,1,1.008-1.037c.58,0,1.159.352,1.159,1.336,0,1.312-.831,2.88-3.173,5.173a79.276,79.276,0,0,1-8.941,7.07v.2c-.051,3.233,2.522,4.314,4.459,4.314a7.413,7.413,0,0,0,6.12-4.116,10.159,10.159,0,0,0,1.361-5.1,2.051,2.051,0,0,0-1.31-.432,1.935,1.935,0,0,0-1.839,1.615,4.262,4.262,0,0,0,.2.835,3.653,3.653,0,0,1,.18.7.741.741,0,0,1-.831.708,1.017,1.017,0,0,1-1.086-1.013A4.12,4.12,0,0,1,82.952,13.9a4.474,4.474,0,0,1,2.492-1.037c1.387,0,2.115.859,3.353,1.967.577.53.657.659,1.1.659.256,0,.508-.353.508-.783a1.942,1.942,0,0,0-.1-.631,2.1,2.1,0,0,1-.1-.38.762.762,0,0,1,.8-.631c.679,0,.931.758.931,1.414a1.679,1.679,0,0,1-.479,1.185c-.15.181-.379.2-.656.253a6.414,6.414,0,0,0-1.89.631.4.4,0,0,1-.606-.148,11.187,11.187,0,0,0-1.736-1.793c0,.457-.05,1.665-.1,2.146a10.737,10.737,0,0,1-2.567,5.455,8.4,8.4,0,0,1-6.047,2.75C73.885,24.956,72.3,22.513,72.291,19.918ZM75.4,14.937a6.824,6.824,0,0,0-1.36,3.1,50.933,50.933,0,0,0,4.1-3.079c.023-.229.023-.555.023-.607a.764.764,0,0,0-.828-.78A3.11,3.11,0,0,0,75.4,14.937Z" transform="translate(1.5 0)"/></g></g></g></svg>