<svg xmlns="http://www.w3.org/2000/svg" width="34" height="34" viewBox="0 0 34 34"><defs><style>.a{opacity:0.6;}.b{fill:rgba(255,255,255,0);}.c{fill:#212121;}</style></defs><g class="a"><rect class="b" width="34" height="34"/><path class="c" d="M2.22,2.22a.75.75,0,0,0-.073.977l.073.084L6.254,7.315A9.986,9.986,0,0,0,2.3,13.064a.75.75,0,1,0,1.455.364,8.49,8.49,0,0,1,3.58-5.034l1.81,1.81A4,4,0,0,0,14.8,15.861l5.919,5.92a.75.75,0,0,0,1.133-.976l-.073-.084-6.114-6.114v0L8.719,7.658v0L7.587,6.525,3.28,2.22A.75.75,0,0,0,2.22,2.22ZM12,5.5a9.992,9.992,0,0,0-2.889.425l1.237,1.236a8.508,8.508,0,0,1,9.9,6.272A.75.75,0,1,0,21.7,13.07,10,10,0,0,0,12,5.5Zm.195,3.509,3.8,3.8A4,4,0,0,0,12.195,9.009Z" transform="translate(5 5)"/></g></svg>