<svg xmlns="http://www.w3.org/2000/svg" width="111.049" height="25.359" viewBox="0 0 111.049 25.359"><defs><style>.a{fill:#f0f3f5;}</style></defs><path class="a" d="M24.959-11.733a7.535,7.535,0,0,1,5.572,2.116,7.985,7.985,0,0,1,2.117,5.908v11H27.906V-3.066a4.685,4.685,0,0,0-1.118-3.369A4.02,4.02,0,0,0,23.74-7.6a4.076,4.076,0,0,0-3.065,1.168A4.642,4.642,0,0,0,19.54-3.066V7.295H14.8V-3.066A4.685,4.685,0,0,0,13.68-6.435,4.02,4.02,0,0,0,10.632-7.6a4.12,4.12,0,0,0-3.1,1.168A4.642,4.642,0,0,0,6.4-3.066V7.295H1.656V-11.462H6.4v2.268a6.311,6.311,0,0,1,2.354-1.862,7.346,7.346,0,0,1,3.167-.677,8.149,8.149,0,0,1,3.929.931,6.526,6.526,0,0,1,2.676,2.658,6.792,6.792,0,0,1,2.659-2.607A7.572,7.572,0,0,1,24.959-11.733ZM53.242-2.49a11.182,11.182,0,0,1-.135,1.828H39.388a4.663,4.663,0,0,0,1.423,3.183,4.387,4.387,0,0,0,3.082,1.151A3.872,3.872,0,0,0,47.653,1.4h5.115a8.544,8.544,0,0,1-3.116,4.452A9.1,9.1,0,0,1,43.995,7.6a9.791,9.791,0,0,1-4.861-1.2,8.461,8.461,0,0,1-3.353-3.4,10.423,10.423,0,0,1-1.2-5.079A10.617,10.617,0,0,1,35.764-7.2a8.27,8.27,0,0,1,3.319-3.386,9.947,9.947,0,0,1,4.911-1.185,9.868,9.868,0,0,1,4.793,1.151,8.1,8.1,0,0,1,3.285,3.267A9.884,9.884,0,0,1,53.242-2.49ZM48.33-3.844a3.758,3.758,0,0,0-1.321-2.929,4.681,4.681,0,0,0-3.15-1.1A4.305,4.305,0,0,0,40.9-6.807a4.689,4.689,0,0,0-1.473,2.963ZM60.084-17.76V7.295H55.342V-17.76Z" transform="translate(-1.656 17.76)"/><path class="a" d="M29.444,2.585v-9.66h2.884a2.976,2.976,0,0,1,2.081.644,2.5,2.5,0,0,1,.7,1.931,2.062,2.062,0,0,1-.354,1.194,2.351,2.351,0,0,1-.959.8,1.915,1.915,0,0,1,1.1.816A2.64,2.64,0,0,1,35.3-.2a2.753,2.753,0,0,1-.747,2.043,2.891,2.891,0,0,1-2.13.743Zm1.272-4.518V1.544h1.737A1.492,1.492,0,0,0,33.6,1.089a1.8,1.8,0,0,0,.424-1.277q0-1.745-1.543-1.745Zm0-1.022h1.633a1.409,1.409,0,0,0,1.067-.425,1.563,1.563,0,0,0,.407-1.128,1.567,1.567,0,0,0-.368-1.158,1.55,1.55,0,0,0-1.126-.362H30.716ZM45.353-1.4a4.662,4.662,0,0,1-.883,3.045,3.071,3.071,0,0,1-2.509,1.068A3.111,3.111,0,0,1,39.492,1.68a4.453,4.453,0,0,1-.942-2.936V-3.074a4.668,4.668,0,0,1,.9-3.035,3.05,3.05,0,0,1,2.5-1.1A3.092,3.092,0,0,1,44.44-6.155a4.59,4.59,0,0,1,.914,3ZM44.082-3.087a3.989,3.989,0,0,0-.525-2.279,1.833,1.833,0,0,0-1.609-.746,1.825,1.825,0,0,0-1.588.756,3.864,3.864,0,0,0-.546,2.229V-1.4A3.945,3.945,0,0,0,40.353.86a1.829,1.829,0,0,0,1.609.776A1.819,1.819,0,0,0,43.547.92a3.882,3.882,0,0,0,.535-2.2ZM53.458.064H50.039l-.785,2.521H47.947l3.259-9.66H52.3l3.266,9.66H54.258ZM50.373-.984h2.759L51.749-5.376Zm11.191-.338H59.784V2.585H58.506v-9.66h2.835a3.115,3.115,0,0,1,2.252.74,2.879,2.879,0,0,1,.764,2.166,2.9,2.9,0,0,1-.413,1.562A2.575,2.575,0,0,1,62.773-1.6l1.96,4.107v.08H63.363ZM59.784-2.364h1.543A1.694,1.694,0,0,0,62.6-2.855a1.807,1.807,0,0,0,.476-1.314q0-1.858-1.765-1.858H59.784Zm7.841,4.949v-9.66h2.411a3.564,3.564,0,0,1,2.752,1.058,4.216,4.216,0,0,1,.98,2.976v1.619a4.13,4.13,0,0,1-.994,2.962,3.793,3.793,0,0,1-2.884,1.045ZM68.9-6.026v7.57h1.022a2.425,2.425,0,0,0,1.96-.733,3.349,3.349,0,0,0,.632-2.173V-3.074A3.38,3.38,0,0,0,71.9-5.313a2.322,2.322,0,0,0-1.859-.713Z" transform="translate(37.28 22.377)"/><path class="a" d="M.767,2.585v-9.66H3.178A3.564,3.564,0,0,1,5.93-6.016a4.216,4.216,0,0,1,.98,2.976v1.619a4.13,4.13,0,0,1-.994,2.962A3.793,3.793,0,0,1,3.032,2.585ZM2.038-6.026v7.57H3.06A2.425,2.425,0,0,0,5.02.811a3.349,3.349,0,0,0,.632-2.173V-3.074a3.38,3.38,0,0,0-.615-2.239,2.322,2.322,0,0,0-1.859-.713ZM15.175.064H11.756L10.97,2.585H9.664l3.259-9.66h1.091l3.266,9.66H15.974ZM12.089-.984h2.759L13.465-5.376ZM24.642.144a1.446,1.446,0,0,0-.41-1.108,4.264,4.264,0,0,0-1.48-.75,6.552,6.552,0,0,1-1.637-.766,2.756,2.756,0,0,1-.848-.916,2.413,2.413,0,0,1-.281-1.178,2.464,2.464,0,0,1,.8-1.891,2.972,2.972,0,0,1,2.1-.743,3.238,3.238,0,0,1,1.584.381,2.66,2.66,0,0,1,1.07,1.058,3.013,3.013,0,0,1,.375,1.486H24.642a1.973,1.973,0,0,0-.452-1.387,1.678,1.678,0,0,0-1.3-.491,1.646,1.646,0,0,0-1.2.411,1.534,1.534,0,0,0-.424,1.154,1.317,1.317,0,0,0,.459,1.022,4.127,4.127,0,0,0,1.418.736,4.93,4.93,0,0,1,2.137,1.161,2.541,2.541,0,0,1,.643,1.8,2.387,2.387,0,0,1-.8,1.881,3.167,3.167,0,0,1-2.175.707,3.635,3.635,0,0,1-1.63-.368,2.868,2.868,0,0,1-1.174-1.035,2.772,2.772,0,0,1-.427-1.529H21a1.828,1.828,0,0,0,.525,1.393,1.991,1.991,0,0,0,1.428.5,1.749,1.749,0,0,0,1.265-.411A1.49,1.49,0,0,0,24.642.144ZM35.784,2.585H34.505V-1.88H30.433V2.585H29.161v-9.66h1.272v4.153h4.072V-7.074h1.279Z" transform="translate(65.956 9.762)"/></svg>