<svg xmlns="http://www.w3.org/2000/svg" width="70.235" height="40.053" viewBox="0 0 70.235 40.053"><defs><style>.a{fill:#f0f3f5;}.b{fill:#fff;}</style></defs><g transform="translate(0 31.989)"><path class="a" d="M27.444.726V-7.1h2.262a2.286,2.286,0,0,1,1.633.521,2.062,2.062,0,0,1,.548,1.564,1.71,1.71,0,0,1-.278.967,1.86,1.86,0,0,1-.752.65,1.507,1.507,0,0,1,.864.661,2.191,2.191,0,0,1,.319,1.2A2.272,2.272,0,0,1,31.454.124a2.225,2.225,0,0,1-1.671.6Zm1-3.66V-.118H29.8a1.152,1.152,0,0,0,.9-.368,1.489,1.489,0,0,0,.333-1.035q0-1.414-1.21-1.414Zm0-.828h1.281a1.088,1.088,0,0,0,.837-.344,1.29,1.29,0,0,0,.319-.914,1.3,1.3,0,0,0-.289-.938,1.192,1.192,0,0,0-.883-.293H28.442ZM39.924-2.5a3.864,3.864,0,0,1-.692,2.467,2.375,2.375,0,0,1-1.968.865,2.4,2.4,0,0,1-1.938-.841,3.685,3.685,0,0,1-.739-2.378V-3.859a3.868,3.868,0,0,1,.7-2.459,2.361,2.361,0,0,1,1.962-.889,2.39,2.39,0,0,1,1.954.852,3.8,3.8,0,0,1,.717,2.432Zm-1-1.371a3.316,3.316,0,0,0-.412-1.846,1.421,1.421,0,0,0-1.262-.6,1.416,1.416,0,0,0-1.246.613A3.21,3.21,0,0,0,35.579-3.9v1.4A3.278,3.278,0,0,0,36-.672a1.42,1.42,0,0,0,1.262.629,1.41,1.41,0,0,0,1.243-.58,3.225,3.225,0,0,0,.42-1.779Zm7.355,2.553H43.6L42.983.726H41.959L44.515-7.1h.856L47.933.726H46.908Zm-2.42-.849h2.164L44.94-5.724Zm9.658-.274h-1.4V.726h-1V-7.1h2.224a2.4,2.4,0,0,1,1.766.6,2.377,2.377,0,0,1,.6,1.755,2.411,2.411,0,0,1-.324,1.266,2.04,2.04,0,0,1-.919.814L56,.661V.726H54.931Zm-1.4-.844h1.21a1.307,1.307,0,0,0,1-.4,1.492,1.492,0,0,0,.373-1.064q0-1.5-1.385-1.5h-1.2ZM59.153.726V-7.1h1.892a2.75,2.75,0,0,1,2.159.857,3.487,3.487,0,0,1,.769,2.41V-2.52a3.414,3.414,0,0,1-.78,2.4A2.923,2.923,0,0,1,60.93.726Zm1-6.976V-.118h.8A1.871,1.871,0,0,0,62.49-.712a2.775,2.775,0,0,0,.5-1.76V-3.859A2.8,2.8,0,0,0,62.5-5.673a1.792,1.792,0,0,0-1.458-.578Z" transform="translate(6.018 7.207)"/><path class="a" d="M.767.726V-7.1H2.658a2.75,2.75,0,0,1,2.159.857,3.487,3.487,0,0,1,.769,2.41V-2.52a3.414,3.414,0,0,1-.78,2.4A2.923,2.923,0,0,1,2.544.726Zm1-6.976V-.118h.8A1.871,1.871,0,0,0,4.1-.712a2.775,2.775,0,0,0,.5-1.76V-3.859a2.8,2.8,0,0,0-.482-1.814A1.792,1.792,0,0,0,2.658-6.25ZM12.948-1.317H10.266L9.65.726H8.625L11.182-7.1h.856L14.6.726H13.575Zm-2.42-.849h2.164L11.607-5.724Zm10.726.914a1.193,1.193,0,0,0-.322-.9,3.309,3.309,0,0,0-1.161-.607,5.069,5.069,0,0,1-1.284-.621,2.207,2.207,0,0,1-.665-.742,2.006,2.006,0,0,1-.221-.954,2.027,2.027,0,0,1,.63-1.532,2.287,2.287,0,0,1,1.649-.6,2.476,2.476,0,0,1,1.243.309,2.121,2.121,0,0,1,.84.857,2.5,2.5,0,0,1,.294,1.2h-1A1.632,1.632,0,0,0,20.9-5.96a1.294,1.294,0,0,0-1.019-.4,1.266,1.266,0,0,0-.938.333,1.266,1.266,0,0,0-.333.935,1.082,1.082,0,0,0,.36.828,3.2,3.2,0,0,0,1.112.6,3.835,3.835,0,0,1,1.676.941,2.1,2.1,0,0,1,.5,1.462A1.963,1.963,0,0,1,21.636.261a2.434,2.434,0,0,1-1.706.572,2.777,2.777,0,0,1-1.278-.3A2.275,2.275,0,0,1,17.73-.3a2.3,2.3,0,0,1-.335-1.239h1a1.508,1.508,0,0,0,.412,1.129,1.532,1.532,0,0,0,1.12.4,1.345,1.345,0,0,0,.992-.333A1.229,1.229,0,0,0,21.254-1.252ZM30.873.726h-1V-2.891H26.676V.726h-1V-7.1h1v3.364H29.87V-7.1h1Z" transform="translate(-0.767 7.23)"/></g><path class="b" d="M3.269-5.257v3.745H1.079V-12.141H5.226a4.8,4.8,0,0,1,2.106.438,3.228,3.228,0,0,1,1.4,1.245,3.471,3.471,0,0,1,.489,1.836A3.052,3.052,0,0,1,8.149-6.158a4.454,4.454,0,0,1-2.96.9Zm0-1.774H5.226A1.924,1.924,0,0,0,6.551-7.44a1.487,1.487,0,0,0,.456-1.168,1.753,1.753,0,0,0-.46-1.263,1.718,1.718,0,0,0-1.27-.5H3.269Zm11.574-.4a5.732,5.732,0,0,0-.759-.058,1.545,1.545,0,0,0-1.57.81v5.169H10.4v-7.9H12.4l.058.942a1.955,1.955,0,0,1,1.759-1.088,2.211,2.211,0,0,1,.657.095Zm.244,1.9a4.684,4.684,0,0,1,.453-2.1,3.313,3.313,0,0,1,1.3-1.424,3.8,3.8,0,0,1,1.975-.5,3.6,3.6,0,0,1,2.61.978,3.926,3.926,0,0,1,1.128,2.657l.015.54a4.128,4.128,0,0,1-1.015,2.916,3.527,3.527,0,0,1-2.723,1.1,3.545,3.545,0,0,1-2.727-1.1,4.2,4.2,0,0,1-1.018-2.978Zm2.11.153a2.945,2.945,0,0,0,.423,1.719,1.4,1.4,0,0,0,1.212.595,1.4,1.4,0,0,0,1.2-.588,3.222,3.222,0,0,0,.431-1.88,2.915,2.915,0,0,0-.431-1.708,1.4,1.4,0,0,0-1.212-.606,1.378,1.378,0,0,0-1.2.6A3.276,3.276,0,0,0,17.2-5.381Zm8.727-4.03v8.33A2.825,2.825,0,0,1,25.23.952a2.636,2.636,0,0,1-2,.726,4.29,4.29,0,0,1-1.044-.124V-.118a3.96,3.96,0,0,0,.664.066q.956,0,.956-1.015V-9.411Zm-2.285-2.044a1.039,1.039,0,0,1,.318-.781,1.193,1.193,0,0,1,.865-.307,1.193,1.193,0,0,1,.865.307,1.039,1.039,0,0,1,.318.781,1.036,1.036,0,0,1-.325.788,1.2,1.2,0,0,1-.858.307,1.2,1.2,0,0,1-.858-.307A1.036,1.036,0,0,1,23.639-11.455ZM31.03-1.366A3.878,3.878,0,0,1,28.2-2.432a3.789,3.789,0,0,1-1.091-2.84v-.2a4.772,4.772,0,0,1,.46-2.128,3.375,3.375,0,0,1,1.3-1.445A3.657,3.657,0,0,1,30.8-9.557a3.278,3.278,0,0,1,2.551,1.022,4.153,4.153,0,0,1,.931,2.9v.861h-5.03a1.96,1.96,0,0,0,.617,1.241,1.865,1.865,0,0,0,1.3.467,2.277,2.277,0,0,0,1.905-.883L34.11-2.789a3.167,3.167,0,0,1-1.285,1.048A4.215,4.215,0,0,1,31.03-1.366Zm-.241-6.483a1.321,1.321,0,0,0-1.018.423,2.187,2.187,0,0,0-.5,1.212H32.2v-.168a1.56,1.56,0,0,0-.38-1.084A1.364,1.364,0,0,0,30.789-7.848Zm7.792,4.782a1.384,1.384,0,0,0,.949-.321,1.125,1.125,0,0,0,.38-.854h1.978a2.706,2.706,0,0,1-.438,1.471,2.89,2.89,0,0,1-1.179,1.037,3.69,3.69,0,0,1-1.653.369,3.429,3.429,0,0,1-2.672-1.077,4.261,4.261,0,0,1-.978-2.975v-.139a4.212,4.212,0,0,1,.971-2.913A3.389,3.389,0,0,1,38.6-9.557a3.322,3.322,0,0,1,2.376.843,2.985,2.985,0,0,1,.909,2.245H39.91a1.438,1.438,0,0,0-.38-1,1.269,1.269,0,0,0-.964-.383,1.271,1.271,0,0,0-1.113.537,3.106,3.106,0,0,0-.376,1.741v.219A3.145,3.145,0,0,0,37.45-3.6,1.287,1.287,0,0,0,38.581-3.067Zm6.858-8.286v1.942H46.79v1.548H45.439v3.942a.941.941,0,0,0,.168.628.843.843,0,0,0,.642.19,3.364,3.364,0,0,0,.621-.051v1.6a4.343,4.343,0,0,1-1.278.19,2.014,2.014,0,0,1-2.263-2.241V-7.863H42.176V-9.411h1.153v-1.942ZM3.941,2.81l2.73,7.709L9.387,2.81h2.876V13.439h-2.2V10.533l.219-5.015L7.416,13.439h-1.5L3.05,5.525l.219,5.008v2.905H1.079V2.81Zm9.588,6.607a4.684,4.684,0,0,1,.453-2.1,3.313,3.313,0,0,1,1.3-1.424,3.8,3.8,0,0,1,1.975-.5,3.6,3.6,0,0,1,2.61.978A3.926,3.926,0,0,1,21,9.03l.015.54A4.128,4.128,0,0,1,20,12.486a3.527,3.527,0,0,1-2.723,1.1,3.545,3.545,0,0,1-2.727-1.1,4.2,4.2,0,0,1-1.018-2.978Zm2.11.153a2.945,2.945,0,0,0,.423,1.719,1.523,1.523,0,0,0,2.409.007,3.222,3.222,0,0,0,.431-1.88,2.915,2.915,0,0,0-.431-1.708A1.4,1.4,0,0,0,17.259,7.1a1.378,1.378,0,0,0-1.2.6A3.276,3.276,0,0,0,15.639,9.57Zm8.435-4.03.066.913a2.758,2.758,0,0,1,2.27-1.059,2.292,2.292,0,0,1,1.869.737,3.44,3.44,0,0,1,.628,2.2v5.1H26.8V8.387a1.369,1.369,0,0,0-.292-.975,1.307,1.307,0,0,0-.971-.3,1.451,1.451,0,0,0-1.336.759v5.57h-2.11V5.54Zm8.479,7.9H30.435V5.54h2.117ZM30.311,3.5a1.039,1.039,0,0,1,.318-.781,1.369,1.369,0,0,1,1.726,0,1.033,1.033,0,0,1,.321.781,1.036,1.036,0,0,1-.325.788,1.353,1.353,0,0,1-1.716,0A1.036,1.036,0,0,1,30.311,3.5Zm6.325.1V5.54h1.351V7.088H36.636V11.03a.941.941,0,0,0,.168.628.843.843,0,0,0,.642.19,3.365,3.365,0,0,0,.621-.051v1.6a4.343,4.343,0,0,1-1.278.19,2.014,2.014,0,0,1-2.263-2.241V7.088H33.373V5.54h1.153V3.6Zm1.8,5.818a4.684,4.684,0,0,1,.453-2.1,3.313,3.313,0,0,1,1.3-1.424,3.8,3.8,0,0,1,1.975-.5,3.6,3.6,0,0,1,2.61.978A3.926,3.926,0,0,1,45.9,9.03l.015.54A4.128,4.128,0,0,1,44.9,12.486a3.933,3.933,0,0,1-5.45,0,4.2,4.2,0,0,1-1.018-2.978Zm2.11.153a2.945,2.945,0,0,0,.423,1.719,1.523,1.523,0,0,0,2.409.007,3.222,3.222,0,0,0,.431-1.88,2.915,2.915,0,0,0-.431-1.708A1.4,1.4,0,0,0,42.165,7.1a1.378,1.378,0,0,0-1.2.6A3.276,3.276,0,0,0,40.545,9.57ZM51.476,7.518a5.732,5.732,0,0,0-.759-.058,1.545,1.545,0,0,0-1.57.81v5.169h-2.11V5.54h1.993l.058.942a1.955,1.955,0,0,1,1.759-1.088,2.211,2.211,0,0,1,.657.095Zm3.062,5.92H52.421V5.54h2.117ZM52.3,3.5a1.039,1.039,0,0,1,.318-.781,1.369,1.369,0,0,1,1.726,0,1.033,1.033,0,0,1,.321.781,1.036,1.036,0,0,1-.325.788,1.353,1.353,0,0,1-1.716,0A1.036,1.036,0,0,1,52.3,3.5ZM58.038,5.54l.066.913a2.758,2.758,0,0,1,2.27-1.059,2.292,2.292,0,0,1,1.869.737,3.44,3.44,0,0,1,.628,2.2v5.1h-2.11V8.387a1.369,1.369,0,0,0-.292-.975,1.307,1.307,0,0,0-.971-.3,1.451,1.451,0,0,0-1.336.759v5.57h-2.11V5.54Zm5.945,3.891A4.629,4.629,0,0,1,64.849,6.5a2.8,2.8,0,0,1,2.332-1.11,2.458,2.458,0,0,1,2.022.891l.088-.745H71.2v7.636a3.376,3.376,0,0,1-.471,1.8,3.024,3.024,0,0,1-1.325,1.168,4.658,4.658,0,0,1-2,.4,4.331,4.331,0,0,1-1.694-.347,3.006,3.006,0,0,1-1.248-.894l.934-1.285a2.471,2.471,0,0,0,1.913.883,1.809,1.809,0,0,0,1.307-.449,1.684,1.684,0,0,0,.467-1.274V12.76a2.44,2.44,0,0,1-1.92.825,2.8,2.8,0,0,1-2.3-1.113,4.628,4.628,0,0,1-.88-2.953Zm2.11.153a2.875,2.875,0,0,0,.431,1.683,1.371,1.371,0,0,0,1.183.61,1.466,1.466,0,0,0,1.38-.723V7.832a1.462,1.462,0,0,0-1.365-.723,1.379,1.379,0,0,0-1.194.621A3.24,3.24,0,0,0,66.093,9.584Z" transform="translate(-0.968 12.542)"/></svg>