<svg xmlns="http://www.w3.org/2000/svg" width="20.01" height="16" viewBox="0 0 20.01 16"><defs><style>.a,.b{fill:#a8adb3;}.a{opacity:0.5;}</style></defs><path class="a" d="M71.487,59.781l-4.363-6.028a.611.611,0,0,0-.991,0L64.7,55.734l2.529,3.5a1.57,1.57,0,0,1,.169,1.518H71A.605.605,0,0,0,71.487,59.781Z" transform="translate(-51.598 -44.751)"/><path class="a" d="M9.448,55.734,8.014,53.753a.611.611,0,0,0-.991,0L2.66,59.781a.613.613,0,0,0,.506.97h3.6a1.564,1.564,0,0,1,.169-1.518Z" transform="translate(-2.543 -44.751)"/><path class="b" d="M31.835,21a.021.021,0,0,0-.021-.021V17.053a2.176,2.176,0,0,0,.632.084,4.57,4.57,0,0,0,1.539-.358,3.482,3.482,0,0,1,1.771-.316h0a.412.412,0,0,0,.485-.4V12.8a.425.425,0,0,0-.337-.4,4.01,4.01,0,0,0-2.213.358,2.335,2.335,0,0,1-1.9.169V12.5a.5.5,0,0,0-.422-.506.483.483,0,0,0-.527.464v8.474l-.021.021L26.46,27.023a.613.613,0,0,0,.506.97h8.726a.613.613,0,0,0,.506-.97Z" transform="translate(-21.326 -11.993)"/></svg>