<svg xmlns="http://www.w3.org/2000/svg" width="14.771" height="16" viewBox="0 0 14.771 16"><defs><style>.a{fill:#a8adb3;}</style></defs><path class="a" d="M9.2,2.438a1.846,1.846,0,0,1,2.381,0l5.539,4.673a1.846,1.846,0,0,1,.656,1.411v8.044A1.436,1.436,0,0,1,16.335,18H13.873a1.436,1.436,0,0,1-1.436-1.436v-4.1a.615.615,0,0,0-.615-.615H8.949a.615.615,0,0,0-.615.615v4.1A1.436,1.436,0,0,1,6.9,18H4.436A1.436,1.436,0,0,1,3,16.566V8.522a1.846,1.846,0,0,1,.656-1.411Z" transform="translate(-3 -2.002)"/></svg>