<svg xmlns="http://www.w3.org/2000/svg" width="20.503" height="15.999" viewBox="0 0 20.503 15.999"><defs><style>.a{fill:#a8adb3;}</style></defs><path class="a" d="M24.233,27.219h-.014v-.871a1.492,1.492,0,0,1,.662.269l.3-.426a1.936,1.936,0,0,0-.964-.347v-.236h-.3v.231a1.134,1.134,0,0,0-.73.278.844.844,0,0,0-.28.655.744.744,0,0,0,.243.6,1.888,1.888,0,0,0,.767.329v.9a1.6,1.6,0,0,1-.8-.4l-.338.4a2.01,2.01,0,0,0,1.14.505v.338h.3v-.334a1.2,1.2,0,0,0,.76-.278.841.841,0,0,0,.287-.66.767.767,0,0,0-.25-.619A1.879,1.879,0,0,0,24.233,27.219Zm-.31-.083a.933.933,0,0,1-.352-.174.327.327,0,0,1-.093-.245.332.332,0,0,1,.118-.259.556.556,0,0,1,.327-.123Zm.648,1.353a.648.648,0,0,1-.352.13v-.834a1.022,1.022,0,0,1,.38.178.358.358,0,0,1-.028.526Z" transform="translate(-13.774 -17.502)"/><path class="a" d="M23.051,9.2a.821.821,0,0,0-.863-.772H12.241l-1.2-.961a.924.924,0,0,0-.578-.2h-5.2a.819.819,0,0,0-.863.772v2H23.051Z" transform="translate(-3.473 -7.27)"/><path class="a" d="M22.4,16.594a.412.412,0,0,0-.325-.154H2.427a.412.412,0,0,0-.325.154.437.437,0,0,0-.1.352L3.6,27.777A1.288,1.288,0,0,0,4.87,28.9H19.631A1.283,1.283,0,0,0,20.9,27.777l1.6-10.831A.453.453,0,0,0,22.4,16.594ZM12.251,26.667a4,4,0,0,1,0-8,4,4,0,0,1,0,8Z" transform="translate(-1.998 -12.901)"/></svg>